<?xml version="1.0" standalone="no"?>
<!DOCTYPE svg PUBLIC "-//W3C//DTD SVG 20010904//EN"
 "http://www.w3.org/TR/2001/REC-SVG-20010904/DTD/svg10.dtd">
<svg version="1.0" xmlns="http://www.w3.org/2000/svg"
 width="700.000000pt" height="700.000000pt" viewBox="0 0 700.000000 700.000000"
 preserveAspectRatio="xMidYMid meet">
<metadata>
Created by potrace 1.11, written by Peter Selinger 2001-2013
</metadata>
<g transform="translate(0.000000,700.000000) scale(0.100000,-0.100000)"
fill="#000000" stroke="none">
<path d="M3298 6595 c-2 -1 -41 -6 -88 -9 -47 -4 -94 -9 -105 -12 -11 -2 -36
-6 -55 -9 -88 -11 -122 -18 -230 -41 -14 -3 -35 -7 -47 -10 -12 -2 -77 -20
-144 -40 -637 -185 -1203 -578 -1611 -1119 -71 -94 -198 -287 -198 -301 0 -3
-8 -18 -19 -32 -56 -81 -168 -330 -237 -525 -25 -73 -89 -307 -98 -362 -3 -16
-8 -41 -11 -55 -17 -88 -34 -208 -43 -305 -13 -154 -4 -636 13 -664 1 -4 6
-31 9 -61 5 -45 32 -182 61 -312 63 -283 249 -703 422 -950 18 -26 33 -52 33
-57 0 -5 3 -11 8 -13 4 -1 25 -28 47 -58 102 -141 311 -369 450 -491 403 -353
934 -614 1440 -710 39 -7 72 -14 75 -14 107 -26 301 -40 540 -40 212 0 339 8
455 29 17 3 48 8 70 11 22 4 81 15 130 26 50 11 100 22 112 25 12 2 85 25 163
50 483 155 886 400 1240 754 141 141 159 160 251 275 227 284 439 687 535
1015 19 66 74 287 79 317 11 70 15 98 20 123 6 33 15 102 25 197 8 76 5 533
-3 583 -2 14 -7 52 -11 85 -4 33 -11 80 -16 105 -5 25 -11 59 -14 75 -2 17 -9
50 -14 75 -6 25 -13 57 -16 73 -11 60 -90 309 -133 417 -322 813 -989 1466
-1803 1765 -96 35 -287 94 -357 110 -58 13 -233 46 -262 50 -40 5 -98 13 -151
21 -38 5 -506 14 -512 9z m823 -962 c0 -10 1 -347 1 -750 1 -519 4 -733 12
-736 6 -1 332 -3 724 -2 391 0 713 -2 713 -5 4 -12 6 -1257 3 -1270 -3 -13
-90 -15 -727 -15 l-724 0 -1 -740 c0 -407 -1 -746 -1 -752 -1 -19 -1237 -19
-1243 -1 -2 7 -3 345 -3 750 1 663 0 737 -14 740 -9 2 -334 4 -723 3 -472 0
-709 3 -711 10 -2 5 -3 296 -3 645 l1 635 725 0 725 0 2 745 c0 410 2 748 2
753 1 4 280 7 621 7 583 0 620 -1 621 -17z"/>
</g>
</svg>
