<?xml version="1.0" encoding="utf-8"?>
<!-- Generator: Adobe Illustrator 21.0.0, SVG Export Plug-In . SVG Version: 6.00 Build 0)  -->
<svg version="1.1" id="Calque_1" xmlns="http://www.w3.org/2000/svg" xmlns:xlink="http://www.w3.org/1999/xlink" x="0px" y="0px"
	 viewBox="0 0 520.5 281.9" style="enable-background:new 0 0 520.5 281.9;" xml:space="preserve">
<style type="text/css">
	.st0{fill:#C72C33;}
	.st1{fill:#670916;}
	.st2{fill:#B72A2F;}
	.st3{fill:#971E26;}
	.st4{fill:#EE322D;}
	.st5{fill:#CE6565;}
	.st6{fill:#E55D5B;}
</style>
<g>
	<path id="Symbol" class="st0" d="M158.5,111.6c-35.7,0-64.7,29-64.7,64.7s29,64.7,64.7,64.7s64.7-29,64.7-64.7
		S194.2,111.6,158.5,111.6z M201.8,189.7h-30.3v31.4h-26v-31.4h-30.3v-26.9h30.3v-31.4h26v31.4h30.3V189.7z"/>
	<g>
		<path class="st1" d="M239.4,78v12.4c-15.1,10.9-29.8,16.3-44,16.3c-5.2,0-9.2-2.1-11.8-6.4c-2.7-4.3-4-9.1-4-14.5
			c0-10.7,3.2-20.2,9.6-28.5c6.4-8.3,13.7-12.4,22.1-12.4c7.8,0,11.8,3.7,11.8,11.2c0,6.7-3.4,12.5-10.3,17.5
			c-3.6,2.6-9.5,5.6-17.7,9l-3.1,1.3v0.6c0,3.3,0.5,6,1.6,8.1c1.6,3,4.1,4.6,7.5,4.6c5.9,0,11.8-1.5,17.8-4.5
			C224.7,89.7,231.6,84.8,239.4,78z M193.3,74.2c6.1-2.3,10.9-4.9,14.6-7.9c3.6-3,5.4-6,5.4-8.9c0-2.2-1.1-3.2-3.4-3.2
			c-3.2,0-6.5,2-9.9,6C196.7,64.1,194.5,68.8,193.3,74.2z"/>
		<path class="st1" d="M286.3,56.4l12.9-49.6h12.1l-15.2,59.6c-1.6,6.8-2.8,12.4-3.8,16.9s-1.5,7.5-1.5,8.8c0,1.7,0.5,2.5,1.6,2.5
			c1.3,0,3.4-1,6.3-3.1c4.2-2.9,9.1-7.5,14.6-13.5v12.5c-6.5,5.9-11.8,10-15.8,12.4c-4.1,2.4-8,3.6-11.7,3.6c-3.1,0-5.2-1.5-6.3-4.6
			c-0.7-2-1-5.1-1-9.3c-8.5,9.2-15.5,13.8-20.8,13.8c-4.4,0-8.2-2.1-11.4-6.3c-3.2-4.2-4.8-9.2-4.8-15.1c0-10.7,3.3-19.9,10-27.5
			c6.2-7.1,12.8-10.6,19.9-10.6c2.9,0,5.4,0.7,7.6,2.1C281.2,50.6,283.6,53,286.3,56.4z M280.9,79.9l3.2-14.4
			c-2.7-3.5-4.9-6-6.5-7.3s-3.2-2-4.9-2c-4.6,0-8.8,2.5-12.5,7.4c-4,5.3-6,11.6-6,18.8c0,4.1,0.7,7.5,2.1,10.2c1.4,2.6,3.1,4,5.3,4
			C265.6,96.6,272,91,280.9,79.9z"/>
		<path class="st1" d="M387.1,78v12.5c-5.4,5.1-10.5,9-15.4,11.8c-4.9,2.7-9.2,4.1-13,4.1c-2.7,0-4.5-1.4-5.7-4.3
			c-1.1-2.8-1.7-7.7-1.7-14.6c-4.4,5.7-9.1,10.3-14.1,13.7s-9.4,5.2-13.3,5.2c-5.6,0-8.4-6.6-8.4-19.9c0-5.2,0.7-10.7,2.1-16.6
			c1.4-5.8,3.8-13.5,7.4-22.9h12.1c-6.4,19-9.6,32.2-9.6,39.4c0,3,0.2,5.2,0.7,6.3c0.4,1.2,1.3,1.8,2.4,1.8c1.9,0,4.8-1.7,8.8-5.2
			c4.7-4,9.3-9.4,13.8-16c2-8.8,4.4-17.6,7.2-26.3h12.1l-5.6,20.2c-1.2,4-2.2,8.1-2.9,12.3c-0.8,4.2-1.2,7.3-1.2,9.3
			c0,3.8,0.8,5.7,2.5,5.7c2,0,4.8-1.4,8.4-4.2C377.4,87.7,381.8,83.5,387.1,78z"/>
		<path class="st1" d="M446.6,78v12.5c-5.8,5.5-11.6,9.5-17.4,12.1s-11.9,3.9-18.2,3.9c-8.4,0-14.5-2.7-18.1-8.1
			c-2.5-3.6-3.7-8-3.7-13.2c0-9.8,3.2-18.6,9.7-26.5c6.5-7.8,13.7-11.8,21.8-11.8c4,0,7.2,1,9.6,3.1s3.5,5,3.5,8.7
			c0,3.3-0.7,6.5-2.2,9.4s-3.5,5.3-6.2,7.1c-1.8-0.8-3.2-1.5-4.4-2.3c-1.2-0.7-2.3-1.7-3.2-3c2.5-3.3,4-5.6,4.6-6.7
			c0.6-1.1,0.9-2.3,0.9-3.6c0-2.6-1.4-3.8-4.1-3.8c-3.9,0-7.8,3.3-11.7,9.9c-3.9,6.6-5.8,13-5.8,19.1c0,3.7,1.1,6.7,3.2,9
			c2.2,2.3,5,3.4,8.4,3.4c5.1,0,10.5-1.6,16.2-4.8C435.1,89.2,440.8,84.4,446.6,78z"/>
		<path class="st1" d="M520.5,78v12.5c-11.4,10.4-20.3,15.7-26.8,15.7c-3,0-5.1-1.1-6.1-3.4c-1-2.3-1.5-5-1.5-8.1v-2.5
			c-4.7,5.2-8.6,8.8-11.7,10.9c-3.1,2.1-6.1,3.1-9.1,3.1c-4.4,0-8.3-2.1-11.6-6.3c-3.3-4.2-4.9-9.1-4.9-14.8
			c0-10.6,3.3-19.8,10-27.5c6.2-7.2,12.9-10.7,20.2-10.7c2.9,0,5.6,0.7,8,2.2c2.4,1.5,4.7,3.8,6.8,7.1l2.5-9.3h12.2L500.8,78
			c-0.7,2.4-1.3,5-1.8,7.8s-0.7,4.7-0.7,5.8c0,1.8,0.6,2.8,1.8,2.8c1.6,0,4.1-1.4,7.7-4.3C511.5,87.1,515.7,83.1,520.5,78z
			 M488.5,79.8l3.3-14.7c-3.3-3.9-5.5-6.3-6.6-7.2c-1.6-1.3-3.2-1.9-5-1.9c-4.7,0-9,2.7-12.7,8c-3.8,5.3-5.7,11.4-5.7,18
			c0,4.2,0.7,7.6,2.1,10.2c1.4,2.6,3.2,3.9,5.5,3.9c3,0,6.5-2.2,10.6-6.5C482.8,86.4,485.6,83.1,488.5,79.8z"/>
	</g>
	<g>
		<ellipse transform="matrix(1 -1.355073e-03 1.355073e-03 1 -0.3242 0.2668)" class="st2" cx="196.7" cy="239.4" rx="2" ry="2"/>
		<ellipse transform="matrix(1 -1.355073e-03 1.355073e-03 1 -0.2883 0.3014)" class="st3" cx="222.3" cy="212.9" rx="2" ry="2"/>
		<ellipse transform="matrix(0.9671 -0.2545 0.2545 0.9671 -50.9909 61.2754)" class="st3" cx="211.3" cy="227.7" rx="2" ry="2"/>
		<ellipse transform="matrix(0.9671 -0.2545 0.2545 0.9671 -52.7869 64.0169)" class="st3" cx="221" cy="236" rx="2.3" ry="2.3"/>
		<ellipse transform="matrix(1 -1.355073e-03 1.355073e-03 1 -0.3382 0.2157)" class="st4" cx="159" cy="249.7" rx="2" ry="2"/>
		<ellipse transform="matrix(0.9671 -0.2545 0.2545 0.9671 -57.0216 53.2804)" class="st2" cx="177.4" cy="247" rx="2" ry="2"/>
		
			<ellipse transform="matrix(1 -1.355073e-03 1.355073e-03 1 -0.3546 0.2168)" class="st4" cx="159.8" cy="261.8" rx="2.3" ry="2.3"/>
		
			<ellipse transform="matrix(1 -1.355073e-03 1.355073e-03 1 -0.3383 0.2765)" class="st3" cx="203.9" cy="249.8" rx="2.3" ry="2.3"/>
		
			<ellipse transform="matrix(0.9671 -0.2545 0.2545 0.9671 -59.848 54.6529)" class="st2" cx="181.3" cy="258.6" rx="2.3" ry="2.3"/>
		<path class="st2" d="M184.8,271.3c1.4-0.4,2.2-1.8,1.9-3.2s-1.8-2.2-3.2-1.9s-2.2,1.8-1.9,3.2C182,270.8,183.4,271.6,184.8,271.3z
			"/>
		<ellipse transform="matrix(1 -1.355073e-03 1.355073e-03 1 -0.3231 0.1654)" class="st4" cx="121.9" cy="238.5" rx="2" ry="2"/>
		<ellipse transform="matrix(0.9671 -0.2545 0.2545 0.9671 -54.3111 34.8456)" class="st5" cx="107.5" cy="227.3" rx="2" ry="2"/>
		
			<ellipse transform="matrix(1 -1.355073e-03 1.355073e-03 1 -0.3369 0.1578)" class="st4" cx="116.3" cy="248.7" rx="2.3" ry="2.3"/>
		
			<ellipse transform="matrix(0.9671 -0.2545 0.2545 0.9671 -56.6586 33.0753)" class="st5" cx="99.5" cy="235.5" rx="2.3" ry="2.3"/>
		<ellipse transform="matrix(0.9671 -0.2545 0.2545 0.9671 -60.9021 43.0671)" class="st4" cx="136" cy="256.9" rx="2.3" ry="2.3"/>
		
			<ellipse transform="matrix(1 -1.355073e-03 1.355073e-03 1 -0.3491 0.1513)" class="st4" cx="111.5" cy="257.7" rx="2.6" ry="2.6"/>
		
			<ellipse transform="matrix(1 -1.355073e-03 1.355073e-03 1 -0.3687 0.2172)" class="st4" cx="160.1" cy="272.2" rx="2.6" ry="2.6"/>
		<path class="st5" d="M93.4,245.4c1.4-0.4,2.2-1.8,1.9-3.2s-1.8-2.2-3.2-1.9c-1.4,0.4-2.2,1.8-1.9,3.2
			C90.6,245,92,245.8,93.4,245.4z"/>
		<path class="st4" d="M134.2,269.4c1.4-0.4,2.2-1.8,1.9-3.2c-0.4-1.4-1.8-2.2-3.2-1.9c-1.4,0.4-2.2,1.8-1.9,3.2
			C131.3,268.9,132.8,269.7,134.2,269.4z"/>
		<ellipse transform="matrix(1 -1.355073e-03 1.355073e-03 1 -0.3627 0.1429)" class="st4" cx="105.3" cy="267.7" rx="3" ry="2.9"/>
		<path class="st4" d="M130.9,280.9c1.6-0.4,2.5-2,2.1-3.6s-2-2.5-3.6-2.1c-1.6,0.4-2.5,2-2.1,3.6S129.3,281.3,130.9,280.9z"/>
		<ellipse transform="matrix(0.9666 -0.2564 0.2564 0.9666 -47.0687 29.1864)" class="st6" cx="88.4" cy="195.1" rx="2" ry="2"/>
		<path class="st5" d="M89.6,199.5c-1,0.4-1.6,1.5-1.2,2.6c0.4,1,1.5,1.6,2.6,1.2c1-0.4,1.6-1.5,1.2-2.6S90.7,199.1,89.6,199.5z"/>
		<ellipse transform="matrix(0.9834 -0.1817 0.1817 0.9834 -33.0556 18.9856)" class="st6" cx="87.1" cy="189.9" rx="2" ry="2"/>
		<path class="st5" d="M91.8,205.3c-1,0.5-1.4,1.7-1,2.7c0.5,1,1.7,1.4,2.7,1c1-0.5,1.4-1.7,1-2.7C94,205.3,92.8,204.9,91.8,205.3z"
			/>
		
			<ellipse transform="matrix(1 -1.355073e-03 1.355073e-03 1 -0.2964 0.1173)" class="st5" cx="86.4" cy="218.8" rx="2.3" ry="2.3"/>
		<path class="st5" d="M78.5,202.9c-1.2,0.4-1.8,1.8-1.4,3s1.8,1.8,3,1.4s1.8-1.8,1.4-3S79.7,202.5,78.5,202.9z"/>
		<path class="st5" d="M81.1,209.8c-1.2,0.5-1.7,1.9-1.1,3.1c0.5,1.2,1.9,1.7,3.1,1.1c1.2-0.5,1.7-1.9,1.1-3.1
			C83.6,209.8,82.2,209.3,81.1,209.8z"/>
		
			<ellipse transform="matrix(1 -1.355073e-03 1.355073e-03 1 -0.3039 0.1062)" class="st5" cx="78.2" cy="224.3" rx="2.6" ry="2.6"/>
		<path class="st5" d="M69.4,206.6c-1.4,0.5-2.1,2-1.6,3.3s2,2.1,3.4,1.6s2.1-2,1.6-3.3C72.2,206.8,70.7,206.1,69.4,206.6z"/>
		<path class="st5" d="M72.2,214.3c-1.3,0.6-1.9,2.2-1.3,3.5s2.2,1.9,3.5,1.3s1.9-2.2,1.3-3.5C75.1,214.2,73.6,213.6,72.2,214.3z"/>
		
			<ellipse transform="matrix(1 -1.355073e-03 1.355073e-03 1 -0.3116 9.181412e-02)" class="st5" cx="67.6" cy="230" rx="3" ry="2.9"/>
		<path class="st5" d="M57.6,209.9c-1.5,0.6-2.3,2.2-1.8,3.8c0.6,1.5,2.3,2.3,3.8,1.8c1.5-0.6,2.3-2.2,1.8-3.8
			C60.9,210.2,59.2,209.4,57.6,209.9z"/>
		
			<ellipse transform="matrix(1 -1.355073e-03 1.355073e-03 1 -0.3199 7.569432e-02)" class="st5" cx="55.7" cy="236.1" rx="3.3" ry="3.3"/>
		
			<ellipse transform="matrix(1 -1.355073e-03 1.355073e-03 1 -0.3774 0.1333)" class="st4" cx="98.2" cy="278.6" rx="3.3" ry="3.3"/>
		<path class="st4" d="M75.1,263c1.8-0.5,2.9-2.3,2.4-4.1c-0.5-1.8-2.3-2.8-4.1-2.4c-1.8,0.5-2.9,2.3-2.4,4.1
			C71.5,262.4,73.3,263.5,75.1,263z"/>
		
			<ellipse transform="matrix(1 -1.355073e-03 1.355073e-03 1 -0.3321 5.727359e-02)" class="st4" cx="42.1" cy="245.1" rx="3.8" ry="3.7"/>
		<ellipse transform="matrix(0.9834 -0.1817 0.1817 0.9834 -34.1493 15.2364)" class="st6" cx="66.1" cy="194" rx="2.6" ry="2.6"/>
		<path class="st5" d="M55,200.6c-1.6,0.4-2.5,2-2.1,3.6s2,2.5,3.6,2.1s2.5-2,2.1-3.6C58.2,201.1,56.6,200.2,55,200.6z"/>
		<ellipse transform="matrix(0.9834 -0.1817 0.1817 0.9834 -34.6761 13.069)" class="st6" cx="54" cy="195.8" rx="3" ry="2.9"/>
		<path class="st5" d="M41.5,203c-1.8,0.5-2.8,2.3-2.4,4.1s2.3,2.8,4.1,2.4s2.8-2.3,2.4-4.1S43.3,202.5,41.5,203z"/>
		<path class="st5" d="M44.4,213.5c-1.7,0.6-2.6,2.5-2,4.3c0.6,1.7,2.5,2.6,4.3,2c1.7-0.6,2.6-2.5,2-4.3
			C48.1,213.8,46.2,212.9,44.4,213.5z"/>
		<path class="st6" d="M39.7,194.3c-1.8,0.3-3,2.1-2.7,3.9s2.1,3,3.9,2.7c1.8-0.3,3-2.1,2.7-3.9C43.2,195.1,41.5,193.9,39.7,194.3z"
			/>
		<path class="st5" d="M26.1,207.7c-2,0.5-3.2,2.6-2.7,4.6s2.6,3.2,4.6,2.7s3.2-2.6,2.7-4.6C30.2,208.4,28.1,207.2,26.1,207.7z"/>
		<path class="st5" d="M29.4,219.6c-2,0.7-3,2.9-2.3,4.8s2.9,3,4.8,2.2c2-0.7,3-2.9,2.3-4.8C33.5,219.9,31.4,218.9,29.4,219.6z"/>
		<path class="st5" d="M24,197.9c-2,0.4-3.4,2.3-3,4.4c0.4,2,2.3,3.4,4.4,3s3.4-2.3,3-4.4C28.1,198.9,26.1,197.5,24,197.9z"/>
		<path class="st5" d="M33.6,230.7c-1.9,0.9-2.7,3.1-1.8,5c0.9,1.9,3.1,2.7,5,1.8s2.7-3.1,1.8-5C37.7,230.6,35.4,229.8,33.6,230.7z"
			/>
		<path class="st3" d="M115.3,4.9c-2.5,0.7-4,3.2-3.4,5.7c0.7,2.5,3.3,4,5.8,3.3s4-3.2,3.4-5.7C120.4,5.7,117.8,4.2,115.3,4.9z"/>
		<ellipse transform="matrix(1 -3.352757e-03 3.352757e-03 1 -0.2804 0.3515)" class="st2" cx="104.7" cy="83.8" rx="3" ry="2.9"/>
		<ellipse transform="matrix(1 -3.352757e-03 3.352757e-03 1 -0.2388 0.3273)" class="st2" cx="97.5" cy="71.4" rx="3.3" ry="3.3"/>
		<ellipse transform="matrix(1 -3.352757e-03 3.352757e-03 1 -0.198 0.2997)" class="st2" cx="89.3" cy="59.2" rx="3.8" ry="3.7"/>
		<ellipse transform="matrix(1 -3.352757e-03 3.352757e-03 1 -0.141 0.2685)" class="st3" cx="80" cy="42.2" rx="4.3" ry="4.3"/>
		
			<ellipse transform="matrix(1 -3.352757e-03 3.352757e-03 1 -9.682848e-02 0.2399)" class="st3" cx="71.5" cy="29" rx="4.7" ry="4.7"/>
		<ellipse transform="matrix(1 -3.352757e-03 3.352757e-03 1 -0.3819 0.408)" class="st4" cx="121.5" cy="114.1" rx="2" ry="2"/>
		
			<ellipse transform="matrix(1 -3.352757e-03 3.352757e-03 1 -0.3444 0.3888)" class="st4" cx="115.8" cy="102.9" rx="2.3" ry="2.3"/>
		<ellipse transform="matrix(1 -3.352757e-03 3.352757e-03 1 -0.3176 0.3727)" class="st2" cx="111" cy="94.9" rx="2.6" ry="2.6"/>
		<ellipse transform="matrix(1 -3.352757e-03 3.352757e-03 1 -0.3471 0.534)" class="st4" cx="159.1" cy="103.8" rx="2" ry="2"/>
		
			<ellipse transform="matrix(1 -3.352757e-03 3.352757e-03 1 -0.3039 0.5366)" class="st2" cx="159.9" cy="90.9" rx="2.3" ry="2.3"/>
		
			<ellipse transform="matrix(1 -3.352757e-03 3.352757e-03 1 -0.2724 0.5376)" class="st2" cx="160.2" cy="81.5" rx="2.6" ry="2.6"/>
		<ellipse transform="matrix(1 -3.352757e-03 3.352757e-03 1 -0.2291 0.5378)" class="st2" cx="160.3" cy="68.6" rx="3" ry="2.9"/>
		
			<ellipse transform="matrix(1 -3.352757e-03 3.352757e-03 1 -0.1808 0.5374)" class="st2" cx="160.2" cy="54.2" rx="3.3" ry="3.3"/>
		<ellipse transform="matrix(1 -3.352757e-03 3.352757e-03 1 -0.1325 0.5367)" class="st3" cx="160" cy="39.8" rx="3.8" ry="3.7"/>
		
			<ellipse transform="matrix(1 -3.352757e-03 3.352757e-03 1 -6.682501e-02 0.5379)" class="st3" cx="160.4" cy="20.2" rx="4.3" ry="4.3"/>
		
			<ellipse transform="matrix(1 -3.352757e-03 3.352757e-03 1 -1.485763e-02 0.5371)" class="st3" cx="160.2" cy="4.7" rx="4.7" ry="4.7"/>
		<ellipse transform="matrix(0.9666 -0.2564 0.2564 0.9666 -22.4288 39.5844)" class="st4" cx="140.6" cy="105.8" rx="2" ry="2"/>
		
			<ellipse transform="matrix(0.9666 -0.2564 0.2564 0.9666 -19.2792 38.5476)" class="st2" cx="138.2" cy="93.2" rx="2.3" ry="2.3"/>
		<path class="st2" d="M135.3,81.6c-1.4,0.4-2.2,1.8-1.9,3.2c0.4,1.4,1.8,2.2,3.2,1.9c1.4-0.4,2.2-1.8,1.9-3.2
			S136.7,81.2,135.3,81.6z"/>
		<path class="st2" d="M132.2,68.7c-1.6,0.4-2.5,2-2.1,3.6s2,2.5,3.6,2.1s2.5-2,2.1-3.6S133.8,68.3,132.2,68.7z"/>
		<path class="st2" d="M128.4,54.3c-1.8,0.5-2.8,2.3-2.4,4.1c0.5,1.8,2.3,2.8,4.1,2.4c1.8-0.5,2.8-2.3,2.4-4.1
			S130.2,53.9,128.4,54.3z"/>
		<path class="st3" d="M124.2,40c-2,0.5-3.2,2.6-2.7,4.6s2.6,3.2,4.6,2.7c2-0.5,3.2-2.6,2.7-4.6S126.2,39.5,124.2,40z"/>
		<path class="st3" d="M119.7,20.4c-2.3,0.6-3.6,2.9-3,5.2s2.9,3.6,5.2,3s3.6-2.9,3-5.2C124.3,21.2,122,19.8,119.7,20.4z"/>
		<path class="st2" d="M72.1,86.7c-1.8,0.5-2.8,2.3-2.4,4.1s2.3,2.8,4.1,2.4c1.8-0.5,2.8-2.3,2.4-4.1S73.9,86.2,72.1,86.7z"/>
		<ellipse transform="matrix(1 -3.352757e-03 3.352757e-03 1 -0.4712 0.322)" class="st4" cx="95.8" cy="140.7" rx="2" ry="2"/>
		
			<ellipse transform="matrix(1 -3.352757e-03 3.352757e-03 1 -0.4491 0.2884)" class="st4" cx="85.8" cy="134.1" rx="2.3" ry="2.3"/>
		
			<ellipse transform="matrix(0.9666 -0.2564 0.2564 0.9666 -36.8245 24.9824)" class="st4" cx="77.4" cy="153.7" rx="2.3" ry="2.3"/>
		<path class="st2" d="M60.6,76.5c-2,0.5-3.2,2.6-2.7,4.6s2.6,3.2,4.6,2.7s3.2-2.6,2.7-4.6C64.7,77.1,62.6,75.9,60.6,76.5z"/>
		<path class="st2" d="M47.5,61.9c-2.3,0.6-3.6,2.9-3,5.2s2.9,3.6,5.2,3c2.3-0.6,3.6-2.9,3-5.2C52.1,62.6,49.8,61.3,47.5,61.9z"/>
		<path class="st2" d="M35.6,50.6c-2.5,0.7-4,3.2-3.4,5.7c0.7,2.5,3.3,4,5.8,3.3s4-3.2,3.4-5.7C40.7,51.5,38.1,50,35.6,50.6z"/>
		<ellipse transform="matrix(0.9666 -0.2564 0.2564 0.9666 -28.5406 31.5406)" class="st4" cx="106.7" cy="125.2" rx="2" ry="2"/>
		
			<ellipse transform="matrix(0.9956 -9.379960e-02 9.379960e-02 0.9956 -10.5298 11.3903)" class="st4" cx="115.9" cy="117.7" rx="2" ry="2"/>
		<ellipse transform="matrix(0.9834 -0.1817 0.1817 0.9834 -20.2505 22.1538)" class="st4" cx="110.8" cy="121.6" rx="2" ry="2"/>
		<ellipse transform="matrix(0.9666 -0.2564 0.2564 0.9666 -26.4551 29.1345)" class="st4" cx="98.5" cy="116" rx="2.3" ry="2.3"/>
		
			<ellipse transform="matrix(0.9956 -9.379960e-02 9.379960e-02 0.9956 -9.5738 10.7253)" class="st4" cx="109.3" cy="107.2" rx="2.3" ry="2.3"/>
		<path class="st4" d="M92.5,119.5c-1.2,0.4-1.8,1.8-1.4,3s1.8,1.8,3,1.4s1.8-1.8,1.4-3C95.1,119.7,93.8,119.1,92.5,119.5z"/>
		
			<ellipse transform="matrix(0.9834 -0.1817 0.1817 0.9834 -18.5765 20.6256)" class="st4" cx="103.3" cy="111.7" rx="2.3" ry="2.3"/>
		<path class="st4" d="M91.1,107c-1.4,0.4-2.2,1.8-1.9,3.2s1.8,2.2,3.2,1.9c1.4-0.4,2.2-1.8,1.9-3.2C93.9,107.4,92.5,106.6,91.1,107
			z"/>
		<path class="st4" d="M85,113.4c-1.4,0.5-2.1,2-1.6,3.3s2,2.1,3.4,1.6s2.1-2,1.6-3.3C87.9,113.6,86.4,112.9,85,113.4z"/>
		<ellipse transform="matrix(0.9834 -0.1817 0.1817 0.9834 -17.4289 19.3689)" class="st4" cx="97" cy="104.8" rx="2.6" ry="2.6"/>
		<path class="st4" d="M79.6,120.1c-1.3,0.6-1.9,2.2-1.3,3.5s2.2,1.9,3.5,1.3s1.9-2.2,1.3-3.5C82.5,120.1,80.9,119.5,79.6,120.1z"/>
		<ellipse transform="matrix(1 -3.352757e-03 3.352757e-03 1 -0.4127 0.2247)" class="st4" cx="66.8" cy="123.2" rx="3" ry="2.9"/>
		<path class="st2" d="M82.2,97.4c-1.6,0.4-2.5,2-2.1,3.6s2,2.5,3.6,2.1s2.5-2,2.1-3.6S83.8,97,82.2,97.4z"/>
		
			<ellipse transform="matrix(0.9956 -9.379960e-02 9.379960e-02 0.9956 -12.0786 6.4334)" class="st4" cx="62.4" cy="131.7" rx="3" ry="2.9"/>
		<path class="st4" d="M75.4,104.7c-1.5,0.6-2.3,2.2-1.8,3.8c0.6,1.5,2.3,2.3,3.8,1.8c1.5-0.6,2.3-2.2,1.8-3.8
			S76.9,104.2,75.4,104.7z"/>
		<path class="st4" d="M69.2,112.3c-1.5,0.7-2.1,2.4-1.4,3.9s2.5,2.1,3.9,1.4c1.5-0.7,2.1-2.4,1.4-3.9S70.7,111.6,69.2,112.3z"/>
		
			<ellipse transform="matrix(1 -3.352757e-03 3.352757e-03 1 -0.3876 0.1844)" class="st4" cx="54.8" cy="115.7" rx="3.3" ry="3.3"/>
		
			<ellipse transform="matrix(0.9956 -9.379960e-02 9.379960e-02 0.9956 -11.5431 5.2243)" class="st4" cx="49.8" cy="125.4" rx="3.3" ry="3.3"/>
		<path class="st4" d="M45,131.8c-1.8,0.3-3,2.1-2.7,3.9s2.1,3,3.9,2.7s3-2.1,2.7-3.9C48.6,132.6,46.8,131.5,45,131.8z"/>
		<path class="st4" d="M57.5,103.4c-1.7,0.8-2.4,2.8-1.6,4.4c0.8,1.7,2.8,2.4,4.4,1.6c1.7-0.8,2.4-2.8,1.6-4.4
			S59.1,102.7,57.5,103.4z"/>
		
			<ellipse transform="matrix(1 -3.352757e-03 3.352757e-03 1 -0.3659 0.1384)" class="st4" cx="41.1" cy="109.2" rx="3.8" ry="3.7"/>
		<path class="st4" d="M26.7,137c-2,0.5-3.2,2.6-2.7,4.6s2.6,3.2,4.6,2.7s3.2-2.6,2.7-4.6C30.8,137.6,28.7,136.4,26.7,137z"/>
		
			<ellipse transform="matrix(0.9956 -9.379960e-02 9.379960e-02 0.9956 -11.1182 3.8603)" class="st4" cx="35.5" cy="120.2" rx="3.8" ry="3.8"/>
		<path class="st4" d="M30.1,127.4c-2,0.4-3.4,2.3-3,4.4c0.4,2,2.3,3.4,4.4,3c2-0.4,3.4-2.3,3-4.4S32.1,127,30.1,127.4z"/>
		<path class="st2" d="M44.1,95.4c-1.9,0.9-2.7,3.1-1.8,5s3.1,2.7,5,1.8s2.7-3.1,1.8-5S46,94.5,44.1,95.4z"/>
		
			<ellipse transform="matrix(1 -3.352757e-03 3.352757e-03 1 -0.3321 8.538307e-02)" class="st2" cx="25.3" cy="99.1" rx="4.3" ry="4.3"/>
		<path class="st4" d="M9,130.6c-2.3,0.6-3.6,2.9-3,5.2c0.6,2.3,2.9,3.6,5.2,3s3.6-2.9,3-5.2C13.6,131.3,11.3,130,9,130.6z"/>
		
			<ellipse transform="matrix(0.9956 -9.379960e-02 9.379960e-02 0.9956 -10.3757 2.2646)" class="st4" cx="18.9" cy="111.5" rx="4.3" ry="4.3"/>
		<path class="st4" d="M5.5,144.3c-2.2,0.8-3.4,3.2-2.6,5.5c0.8,2.2,3.3,3.4,5.5,2.6c2.2-0.8,3.4-3.2,2.6-5.5
			C10.2,144.7,7.7,143.5,5.5,144.3z"/>
		<path class="st4" d="M12.8,119.7c-2.3,0.4-3.9,2.6-3.4,5c0.4,2.3,2.7,3.8,5,3.4s3.9-2.6,3.4-5C17.4,120.8,15.1,119.3,12.8,119.7z"
			/>
		
			<ellipse transform="matrix(1 -3.352757e-03 3.352757e-03 1 -0.3074 3.773162e-02)" class="st2" cx="11.1" cy="91.7" rx="4.7" ry="4.7"/>
		<ellipse transform="matrix(1 -1.355073e-03 1.355073e-03 1 -0.2888 0.131)" class="st5" cx="96.5" cy="213.2" rx="2" ry="2"/>
		<ellipse transform="matrix(1 -1.355073e-03 1.355073e-03 1 -0.2399 0.1167)" class="st6" cx="86" cy="177.1" rx="2" ry="2"/>
		<ellipse transform="matrix(0.9671 -0.2545 0.2545 0.9671 -57.9677 43.3899)" class="st4" cx="138.7" cy="245.7" rx="2" ry="2"/>
		<ellipse transform="matrix(0.9666 -0.2564 0.2564 0.9666 -37.4408 28.0366)" class="st6" cx="88.8" cy="157.6" rx="2" ry="2"/>
		
			<ellipse transform="matrix(0.9958 -9.180935e-02 9.180935e-02 0.9958 -19.6393 10.0948)" class="st5" cx="99.9" cy="218.5" rx="2" ry="2"/>
		
			<ellipse transform="matrix(0.9958 -9.180935e-02 9.180935e-02 0.9958 -16.4838 8.6893)" class="st6" cx="86.2" cy="183.5" rx="2" ry="2"/>
		
			<ellipse transform="matrix(0.9958 -9.180935e-02 9.180935e-02 0.9958 -21.6432 12.7354)" class="st4" cx="127.6" cy="241.6" rx="2" ry="2"/>
		
			<ellipse transform="matrix(0.9958 -9.180935e-02 9.180935e-02 0.9958 -22.1985 16.2575)" class="st4" cx="165.6" cy="249.4" rx="2" ry="2"/>
		
			<ellipse transform="matrix(0.9958 -9.180935e-02 9.180935e-02 0.9958 -20.7953 19.56)" class="st2" cx="202.2" cy="235.8" rx="2" ry="2"/>
		
			<ellipse transform="matrix(0.9958 -9.180935e-02 9.180935e-02 0.9958 -18.0632 21.5603)" class="st3" cx="225.3" cy="207.1" rx="2" ry="2"/>
		
			<ellipse transform="matrix(0.9956 -9.379960e-02 9.379960e-02 0.9956 -9.0925 14.7637)" class="st4" cx="152.5" cy="104.1" rx="2" ry="2"/>
		
			<ellipse transform="matrix(0.9956 -9.379960e-02 9.379960e-02 0.9956 -13.3331 9.3503)" class="st4" cx="92.8" cy="146.5" rx="2" ry="2"/>
		<path class="st5" d="M113,233.6c1-0.4,1.6-1.5,1.2-2.6s-1.5-1.6-2.6-1.2c-1,0.4-1.6,1.5-1.2,2.6C110.8,233.4,112,233.9,113,233.6z
			"/>
		<path class="st4" d="M145.7,249c1-0.4,1.6-1.5,1.2-2.6c-0.4-1-1.5-1.6-2.6-1.2s-1.6,1.5-1.2,2.6
			C143.5,248.8,144.6,249.4,145.7,249z"/>
		<path class="st2" d="M184.4,247c1-0.4,1.6-1.5,1.2-2.6c-0.4-1-1.5-1.6-2.6-1.2s-1.6,1.5-1.2,2.6
			C182.2,246.8,183.3,247.3,184.4,247z"/>
		<path class="st3" d="M216.3,224.6c1-0.4,1.6-1.5,1.2-2.6s-1.5-1.6-2.6-1.2s-1.6,1.5-1.2,2.6C214.2,224.5,215.3,225,216.3,224.6z"
			/>
		<path class="st4" d="M133.5,105.9c-1,0.4-1.6,1.5-1.2,2.6c0.4,1,1.5,1.6,2.6,1.2c1-0.4,1.6-1.5,1.2-2.6S134.6,105.5,133.5,105.9z"
			/>
		<path class="st4" d="M101.6,128.3c-1,0.4-1.6,1.5-1.2,2.6c0.4,1,1.5,1.6,2.6,1.2c1-0.4,1.6-1.5,1.2-2.6S102.6,127.9,101.6,128.3z"
			/>
		<path class="st6" d="M86.6,161.9c-1,0.4-1.6,1.5-1.2,2.6s1.5,1.6,2.6,1.2c1-0.4,1.6-1.5,1.2-2.6C88.7,162.1,87.6,161.6,86.6,161.9
			z"/>
		<ellipse transform="matrix(0.9837 -0.1798 0.1798 0.9837 -38.4742 22.3042)" class="st5" cx="103.8" cy="223.4" rx="2" ry="2"/>
		<ellipse transform="matrix(0.9837 -0.1798 0.1798 0.9837 -41.697 27.9624)" class="st4" cx="133.4" cy="244" rx="2" ry="2"/>
		<ellipse transform="matrix(0.9837 -0.1798 0.1798 0.9837 -41.8606 34.9568)" class="st2" cx="171.9" cy="248.4" rx="2" ry="2"/>
		<ellipse transform="matrix(0.9837 -0.1798 0.1798 0.9837 -38.281 41.0322)" class="st3" cx="207.2" cy="231.7" rx="2" ry="2"/>
		<ellipse transform="matrix(0.9837 -0.1798 0.1798 0.9837 -32.4275 44.2175)" class="st3" cx="227.7" cy="201" rx="2" ry="2"/>
		<ellipse transform="matrix(0.9834 -0.1817 0.1817 0.9834 -16.6129 28.2703)" class="st4" cx="146" cy="104.8" rx="2" ry="2"/>
		<ellipse transform="matrix(0.9834 -0.1817 0.1817 0.9834 -26.1715 18.9389)" class="st4" cx="90.3" cy="152.3" rx="2" ry="2"/>
		<path class="st4" d="M118.1,237.3c1-0.5,1.4-1.7,1-2.7s-1.7-1.4-2.7-1c-1,0.5-1.4,1.7-1,2.7C115.9,237.3,117.1,237.7,118.1,237.3z
			"/>
		<path class="st4" d="M152,249.7c1-0.5,1.4-1.7,1-2.7s-1.7-1.4-2.7-1c-1,0.5-1.4,1.7-1,2.7S151,250.2,152,249.7z"/>
		<path class="st2" d="M190.4,244.3c1-0.5,1.4-1.7,1-2.7s-1.7-1.4-2.7-1c-1,0.5-1.4,1.7-1,2.7S189.4,244.8,190.4,244.3z"/>
		<path class="st3" d="M220.3,219.3c1-0.5,1.4-1.7,1-2.7c-0.5-1-1.7-1.4-2.7-1c-1,0.5-1.4,1.7-1,2.7
			C218.1,219.3,219.3,219.8,220.3,219.3z"/>
		<path class="st4" d="M127.3,108.3c-1,0.5-1.4,1.7-1,2.7c0.5,1,1.7,1.4,2.7,1c1-0.5,1.4-1.7,1-2.7S128.3,107.8,127.3,108.3z"/>
		<path class="st4" d="M97.4,133.4c-1,0.5-1.4,1.7-1,2.7c0.5,1,1.7,1.4,2.7,1c1-0.5,1.4-1.7,1-2.7C99.6,133.3,98.4,132.9,97.4,133.4
			z"/>
		<path class="st6" d="M85.4,168.2c-1,0.5-1.4,1.7-1,2.7c0.5,1,1.7,1.4,2.7,1c1-0.5,1.4-1.7,1-2.7C87.6,168.2,86.4,167.8,85.4,168.2
			z"/>
		
			<ellipse transform="matrix(1 -1.355073e-03 1.355073e-03 1 -0.2394 0.1007)" class="st6" cx="74.2" cy="176.7" rx="2.3" ry="2.3"/>
		<ellipse transform="matrix(0.9671 -0.2545 0.2545 0.9671 -47.8046 26.1069)" class="st6" cx="77" cy="197.8" rx="2.3" ry="2.3"/>
		
			<ellipse transform="matrix(0.9958 -9.180935e-02 9.180935e-02 0.9958 -20.3024 9.27)" class="st5" cx="90.6" cy="225.3" rx="2.3" ry="2.3"/>
		
			<ellipse transform="matrix(0.9958 -9.180935e-02 9.180935e-02 0.9958 -16.5974 7.6177)" class="st6" cx="74.5" cy="184.2" rx="2.3" ry="2.3"/>
		
			<ellipse transform="matrix(0.9958 -9.180935e-02 9.180935e-02 0.9958 -22.645 12.3581)" class="st4" cx="123" cy="252.3" rx="2.3" ry="2.3"/>
		
			<ellipse transform="matrix(0.9958 -9.180935e-02 9.180935e-02 0.9958 -23.2923 16.4822)" class="st2" cx="167.5" cy="261.4" rx="2.3" ry="2.3"/>
		
			<ellipse transform="matrix(0.9958 -9.180935e-02 9.180935e-02 0.9958 -21.6512 20.3537)" class="st3" cx="210.4" cy="245.5" rx="2.3" ry="2.3"/>
		
			<ellipse transform="matrix(0.9956 -9.379960e-02 9.379960e-02 0.9956 -7.8835 14.6785)" class="st2" cx="152.2" cy="91.2" rx="2.3" ry="2.3"/>
		
			<ellipse transform="matrix(0.9956 -9.379960e-02 9.379960e-02 0.9956 -12.8534 8.3407)" class="st4" cx="82.3" cy="140.9" rx="2.3" ry="2.3"/>
		<path class="st5" d="M105.9,242.9c1.2-0.4,1.9-1.8,1.4-3c-0.4-1.2-1.8-1.8-3-1.4s-1.9,1.8-1.4,3S104.7,243.3,105.9,242.9z"/>
		<path class="st4" d="M144.1,261c1.2-0.4,1.9-1.8,1.4-3c-0.4-1.2-1.8-1.8-3-1.4s-1.9,1.8-1.4,3C141.6,260.8,142.9,261.4,144.1,261z
			"/>
		<path class="st2" d="M189.5,258.6c1.2-0.4,1.9-1.8,1.4-3c-0.4-1.2-1.8-1.8-3-1.4s-1.9,1.8-1.4,3
			C186.9,258.4,188.3,259,189.5,258.6z"/>
		<path class="st3" d="M227,232.5c1.2-0.4,1.9-1.8,1.4-3c-0.4-1.2-1.8-1.8-3-1.4s-1.9,1.8-1.4,3C224.4,232.3,225.7,232.9,227,232.5z
			"/>
		<path class="st2" d="M130,93.3c-1.2,0.4-1.8,1.8-1.4,3c0.4,1.2,1.8,1.8,3,1.4c1.2-0.4,1.8-1.8,1.4-3
			C132.5,93.5,131.2,92.9,130,93.3z"/>
		<path class="st6" d="M74.9,159c-1.2,0.4-1.8,1.8-1.4,3s1.8,1.8,3,1.4s1.8-1.8,1.4-3C77.5,159.2,76.1,158.5,74.9,159z"/>
		<ellipse transform="matrix(0.9837 -0.1798 0.1798 0.9837 -39.9824 20.8641)" class="st5" cx="95.1" cy="231" rx="2.3" ry="2.3"/>
		
			<ellipse transform="matrix(0.9837 -0.1798 0.1798 0.9837 -33.2039 16.6773)" class="st6" cx="75.4" cy="191.5" rx="2.3" ry="2.3"/>
		
			<ellipse transform="matrix(0.9837 -0.1798 0.1798 0.9837 -43.7511 27.4952)" class="st4" cx="129.8" cy="255.1" rx="2.3" ry="2.3"/>
		
			<ellipse transform="matrix(0.9837 -0.1798 0.1798 0.9837 -43.9509 35.6908)" class="st2" cx="174.9" cy="260.3" rx="2.3" ry="2.3"/>
		
			<ellipse transform="matrix(0.9837 -0.1798 0.1798 0.9837 -39.7539 42.797)" class="st3" cx="216.2" cy="240.7" rx="2.3" ry="2.3"/>
		
			<ellipse transform="matrix(0.9834 -0.1817 0.1817 0.9834 -14.3264 27.8062)" class="st2" cx="144.6" cy="92.1" rx="2.3" ry="2.3"/>
		
			<ellipse transform="matrix(0.9834 -0.1817 0.1817 0.9834 -25.5184 16.8638)" class="st4" cx="79.3" cy="147.7" rx="2.3" ry="2.3"/>
		<path class="st4" d="M111.9,247.2c1.2-0.5,1.7-1.9,1.1-3.1c-0.5-1.2-1.9-1.7-3.1-1.1c-1.2,0.5-1.7,1.9-1.1,3.1
			C109.3,247.3,110.7,247.8,111.9,247.2z"/>
		<path class="st4" d="M151.6,261.9c1.2-0.5,1.7-1.9,1.1-3.1c-0.5-1.2-1.9-1.7-3.1-1.1s-1.7,1.9-1.1,3.1
			C149,261.9,150.4,262.4,151.6,261.9z"/>
		<path class="st2" d="M196.6,255.5c1.2-0.5,1.7-1.9,1.1-3.1c-0.5-1.2-1.9-1.7-3.1-1.1s-1.7,1.9-1.1,3.1
			C194,255.5,195.4,256.1,196.6,255.5z"/>
		<path class="st2" d="M122.6,96.1c-1.2,0.5-1.7,1.9-1.1,3.1c0.5,1.2,1.9,1.7,3.1,1.1c1.2-0.5,1.7-1.9,1.1-3.1
			C125.2,96.1,123.8,95.6,122.6,96.1z"/>
		<path class="st4" d="M87.7,125.5c-1.2,0.5-1.7,1.9-1.1,3.1c0.5,1.2,1.9,1.7,3.1,1.1c1.2-0.5,1.7-1.9,1.1-3.1S88.8,125,87.7,125.5z
			"/>
		<path class="st6" d="M73.6,166.4c-1.2,0.5-1.7,1.9-1.1,3.1c0.5,1.2,1.9,1.7,3.1,1.1c1.2-0.5,1.7-1.9,1.1-3.1
			C76.2,166.3,74.8,165.8,73.6,166.4z"/>
		
			<ellipse transform="matrix(1 -1.355073e-03 1.355073e-03 1 -0.2402 8.770064e-02)" class="st6" cx="64.6" cy="177.3" rx="2.6" ry="2.6"/>
		
			<ellipse transform="matrix(1 -3.352757e-03 3.352757e-03 1 -0.4351 0.2609)" class="st4" cx="77.6" cy="129.9" rx="2.6" ry="2.6"/>
		<path class="st5" d="M68.3,203.4c1.4-0.4,2.2-1.8,1.9-3.2c-0.4-1.4-1.8-2.2-3.2-1.9s-2.2,1.8-1.9,3.2S66.9,203.7,68.3,203.4z"/>
		<path class="st4" d="M67.6,149.2c-1.4,0.4-2.2,1.8-1.9,3.2c0.4,1.4,1.8,2.2,3.2,1.9c1.4-0.4,2.2-1.8,1.9-3.2
			C70.4,149.7,69,148.9,67.6,149.2z"/>
		<path class="st4" d="M67.5,149.1c-1.4,0.4-2.2,1.8-1.9,3.2c0.4,1.4,1.8,2.2,3.2,1.9c1.4-0.4,2.2-1.8,1.9-3.2
			C70.3,149.5,68.9,148.7,67.5,149.1z"/>
		
			<ellipse transform="matrix(0.9958 -9.180935e-02 9.180935e-02 0.9958 -20.9052 8.5801)" class="st5" cx="82.8" cy="231.5" rx="2.6" ry="2.6"/>
		
			<ellipse transform="matrix(0.9958 -9.180935e-02 9.180935e-02 0.9958 -16.7757 6.7432)" class="st6" cx="64.9" cy="185.7" rx="2.6" ry="2.6"/>
		
			<ellipse transform="matrix(0.9958 -9.180935e-02 9.180935e-02 0.9958 -23.524 12.04)" class="st4" cx="119.1" cy="261.7" rx="2.6" ry="2.6"/>
		
			<ellipse transform="matrix(0.9958 -9.180935e-02 9.180935e-02 0.9958 -24.2421 16.6362)" class="st2" cx="168.7" cy="271.8" rx="2.6" ry="2.6"/>
		
			<ellipse transform="matrix(0.9956 -9.379960e-02 9.379960e-02 0.9956 -7.0047 14.5805)" class="st2" cx="151.6" cy="81.8" rx="2.6" ry="2.6"/>
		
			<ellipse transform="matrix(0.9956 -9.379960e-02 9.379960e-02 0.9956 -8.8942 10.1763)" class="st2" cx="103.8" cy="99.7" rx="2.6" ry="2.6"/>
		
			<ellipse transform="matrix(0.9956 -9.379960e-02 9.379960e-02 0.9956 -12.5635 7.5099)" class="st4" cx="73.6" cy="137.4" rx="2.6" ry="2.6"/>
		<path class="st4" d="M99.9,251.1c1.4-0.5,2.1-2,1.6-3.3c-0.5-1.4-2-2.1-3.4-1.6s-2.1,2-1.6,3.3C97.1,250.9,98.6,251.6,99.9,251.1z
			"/>
		<path class="st4" d="M142.6,271.3c1.4-0.5,2.1-2,1.6-3.3s-2-2.1-3.4-1.6s-2.1,2-1.6,3.3C139.8,271.1,141.3,271.8,142.6,271.3z"/>
		<path class="st2" d="M126.8,84.2c-1.4,0.5-2.1,2-1.6,3.3c0.5,1.4,2,2.1,3.4,1.6c1.4-0.5,2.1-2,1.6-3.3
			C129.7,84.4,128.2,83.7,126.8,84.2z"/>
		<path class="st6" d="M65.3,157.5c-1.4,0.5-2.1,2-1.6,3.3c0.5,1.4,2,2.1,3.4,1.6s2.1-2,1.6-3.3C68.2,157.7,66.7,157,65.3,157.5z"/>
		
			<ellipse transform="matrix(0.9837 -0.1798 0.1798 0.9837 -41.3401 19.6828)" class="st5" cx="87.9" cy="237.9" rx="2.6" ry="2.6"/>
		
			<ellipse transform="matrix(0.9837 -0.1798 0.1798 0.9837 -45.5482 27.0788)" class="st4" cx="126.6" cy="264.8" rx="2.6" ry="2.6"/>
		<ellipse transform="matrix(0.9837 -0.1798 0.1798 0.9837 -45.7501 36.2321)" class="st2" cx="177" cy="270.5" rx="2.6" ry="2.6"/>
		<ellipse transform="matrix(0.9834 -0.1817 0.1817 0.9834 -12.6632 27.378)" class="st2" cx="143.1" cy="82.8" rx="2.6" ry="2.6"/>
		
			<ellipse transform="matrix(0.9834 -0.1817 0.1817 0.9834 -25.1584 15.1815)" class="st4" cx="70.3" cy="144.9" rx="2.6" ry="2.6"/>
		<path class="st4" d="M106.6,256c1.3-0.6,1.9-2.2,1.3-3.5s-2.2-1.9-3.5-1.3s-1.9,2.2-1.3,3.5C103.8,256,105.3,256.6,106.6,256z"/>
		<path class="st4" d="M151,272.3c1.3-0.6,1.9-2.2,1.3-3.5c-0.6-1.3-2.2-1.9-3.5-1.3s-1.9,2.2-1.3,3.5
			C148.1,272.4,149.7,272.9,151,272.3z"/>
		<path class="st2" d="M118.6,87.3c-1.3,0.6-1.9,2.2-1.3,3.5c0.6,1.3,2.2,1.9,3.5,1.3s1.9-2.2,1.3-3.5
			C121.5,87.3,119.9,86.7,118.6,87.3z"/>
		<path class="st6" d="M63.9,165.7c-1.3,0.6-1.9,2.2-1.3,3.5s2.2,1.9,3.5,1.3s1.9-2.2,1.3-3.5S65.2,165.1,63.9,165.7z"/>
		
			<ellipse transform="matrix(1 -1.355073e-03 1.355073e-03 1 -0.2397 7.103282e-02)" class="st6" cx="52.3" cy="176.9" rx="3" ry="2.9"/>
		<path class="st4" d="M85,254.1c1.6-0.4,2.5-2,2.1-3.6s-2-2.5-3.6-2.1s-2.5,2-2.1,3.6S83.4,254.5,85,254.1z"/>
		<path class="st4" d="M55.6,145.2c-1.6,0.4-2.5,2-2.1,3.6s2,2.5,3.6,2.1s2.5-2,2.1-3.6S57.2,144.8,55.6,145.2z"/>
		<path class="st4" d="M55.5,145c-1.6,0.4-2.5,2-2.1,3.6s2,2.5,3.6,2.1s2.5-2,2.1-3.6C58.7,145.5,57.1,144.6,55.5,145z"/>
		
			<ellipse transform="matrix(0.9958 -9.180935e-02 9.180935e-02 0.9958 -21.5524 7.6988)" class="st5" cx="72.9" cy="238.1" rx="3" ry="2.9"/>
		
			<ellipse transform="matrix(0.9958 -9.180935e-02 9.180935e-02 0.9958 -16.8828 5.6158)" class="st6" cx="52.6" cy="186.3" rx="3" ry="2.9"/>
		
			<ellipse transform="matrix(0.9958 -9.180935e-02 9.180935e-02 0.9958 -24.5107 11.5974)" class="st4" cx="113.8" cy="272.2" rx="3" ry="2.9"/>
		
			<ellipse transform="matrix(0.9956 -9.379960e-02 9.379960e-02 0.9956 -5.8081 14.4303)" class="st2" cx="150.6" cy="69" rx="3" ry="2.9"/>
		
			<ellipse transform="matrix(0.9956 -9.379960e-02 9.379960e-02 0.9956 -7.9419 9.4453)" class="st2" cx="96.5" cy="89.2" rx="3" ry="2.9"/>
		<path class="st4" d="M92.2,260.3c1.5-0.6,2.3-2.2,1.8-3.8c-0.6-1.5-2.3-2.3-3.8-1.8c-1.5,0.6-2.3,2.2-1.8,3.8
			C88.9,260.1,90.6,260.9,92.2,260.3z"/>
		<path class="st2" d="M122.5,71.7c-1.5,0.6-2.3,2.2-1.8,3.8c0.6,1.5,2.3,2.3,3.8,1.8c1.5-0.6,2.3-2.2,1.8-3.8
			S124.1,71.1,122.5,71.7z"/>
		<path class="st6" d="M53.1,154.5c-1.5,0.6-2.3,2.2-1.8,3.8c0.6,1.5,2.3,2.3,3.8,1.8c1.5-0.6,2.3-2.2,1.8-3.8
			C56.3,154.7,54.6,153.9,53.1,154.5z"/>
		<ellipse transform="matrix(0.9837 -0.1798 0.1798 0.9837 -42.8221 18.1295)" class="st4" cx="78.6" cy="245.3" rx="3" ry="2.9"/>
		<ellipse transform="matrix(0.9837 -0.1798 0.1798 0.9837 -47.5917 26.5041)" class="st4" cx="122.4" cy="275.8" rx="3" ry="2.9"/>
		<ellipse transform="matrix(0.9834 -0.1817 0.1817 0.9834 -10.3893 26.7845)" class="st2" cx="141" cy="70.1" rx="3" ry="2.9"/>
		<ellipse transform="matrix(0.9834 -0.1817 0.1817 0.9834 -15.7645 17.7302)" class="st2" cx="88.9" cy="94.9" rx="3" ry="2.9"/>
		<ellipse transform="matrix(0.9834 -0.1817 0.1817 0.9834 -24.5157 12.9978)" class="st4" cx="58.7" cy="140.3" rx="3" ry="2.9"/>
		<path class="st4" d="M99.8,265.8c1.5-0.7,2.1-2.4,1.4-3.9s-2.5-2.1-3.9-1.4c-1.5,0.7-2.1,2.4-1.4,3.9S98.3,266.5,99.8,265.8z"/>
		<path class="st5" d="M63.2,223.8c1.5-0.7,2.1-2.4,1.4-3.9s-2.5-2.1-3.9-1.4c-1.5,0.7-2.1,2.4-1.4,3.9S61.7,224.5,63.2,223.8z"/>
		<path class="st2" d="M113.3,75.2c-1.5,0.7-2.1,2.4-1.4,3.9c0.7,1.5,2.5,2.1,3.9,1.4s2.1-2.4,1.4-3.9S114.8,74.5,113.3,75.2z"/>
		<path class="st6" d="M51.5,163.8c-1.5,0.7-2.1,2.4-1.4,3.9s2.5,2.1,3.9,1.4c1.5-0.7,2.1-2.4,1.4-3.9S52.9,163.1,51.5,163.8z"/>
		
			<ellipse transform="matrix(1 -1.355073e-03 1.355073e-03 1 -0.2387 5.219646e-02)" class="st6" cx="38.4" cy="176.2" rx="3.3" ry="3.3"/>
		<path class="st4" d="M42.2,140.5c-1.8,0.5-2.8,2.3-2.4,4.1c0.5,1.8,2.3,2.8,4.1,2.4c1.8-0.5,2.8-2.3,2.4-4.1
			S43.9,140.1,42.2,140.5z"/>
		
			<ellipse transform="matrix(0.9958 -9.180935e-02 9.180935e-02 0.9958 -22.2522 6.6909)" class="st4" cx="61.6" cy="245.2" rx="3.3" ry="3.3"/>
		
			<ellipse transform="matrix(0.9958 -9.180935e-02 9.180935e-02 0.9958 -16.9958 4.3515)" class="st6" cx="38.8" cy="186.9" rx="3.3" ry="3.3"/>
		
			<ellipse transform="matrix(0.9956 -9.379960e-02 9.379960e-02 0.9956 -4.4729 14.2363)" class="st2" cx="149.2" cy="54.7" rx="3.3" ry="3.3"/>
		
			<ellipse transform="matrix(0.9956 -9.379960e-02 9.379960e-02 0.9956 -6.8707 8.6238)" class="st2" cx="88.3" cy="77.4" rx="3.3" ry="3.3"/>
		<path class="st4" d="M83.4,270.3c1.7-0.6,2.6-2.5,2-4.3s-2.5-2.6-4.3-2s-2.6,2.5-2,4.3C79.7,270,81.6,270.9,83.4,270.3z"/>
		<path class="st2" d="M117.6,57.7c-1.7,0.6-2.6,2.5-2,4.3c0.6,1.7,2.5,2.6,4.3,2c1.7-0.6,2.6-2.5,2-4.3
			C121.2,57.9,119.3,57,117.6,57.7z"/>
		<path class="st2" d="M64.4,94.9c-1.7,0.6-2.6,2.5-2,4.3c0.6,1.7,2.5,2.6,4.3,2c1.7-0.6,2.6-2.5,2-4.3C68,95.2,66.1,94.3,64.4,94.9
			z"/>
		<path class="st4" d="M39.3,151c-1.7,0.6-2.6,2.5-2,4.3c0.6,1.7,2.5,2.6,4.3,2c1.7-0.6,2.6-2.5,2-4.3S41.1,150.4,39.3,151z"/>
		<ellipse transform="matrix(0.9837 -0.1798 0.1798 0.9837 -44.4526 16.3567)" class="st4" cx="68" cy="253.4" rx="3.3" ry="3.3"/>
		<path class="st2" d="M137.7,52.6c-1.8,0.3-3,2.1-2.7,3.9c0.3,1.8,2.1,3,3.9,2.7c1.8-0.3,3-2.1,2.7-3.9
			C141.3,53.5,139.6,52.3,137.7,52.6z"/>
		<path class="st2" d="M79.1,80.6c-1.8,0.3-3,2.1-2.7,3.9c0.3,1.8,2.1,3,3.9,2.7s3-2.1,2.7-3.9C82.6,81.5,80.9,80.3,79.1,80.6z"/>
		<path class="st4" d="M91.9,276.5c1.7-0.8,2.4-2.7,1.6-4.4s-2.8-2.4-4.4-1.6c-1.7,0.8-2.4,2.7-1.6,4.4
			C88.2,276.5,90.2,277.2,91.9,276.5z"/>
		<path class="st5" d="M50.7,229.2c1.7-0.8,2.4-2.7,1.6-4.4c-0.8-1.7-2.8-2.4-4.4-1.6c-1.7,0.8-2.4,2.7-1.6,4.4
			C47,229.2,49,230,50.7,229.2z"/>
		<path class="st2" d="M107.1,61.7c-1.7,0.8-2.4,2.8-1.6,4.4c0.8,1.7,2.8,2.4,4.4,1.6c1.7-0.8,2.4-2.8,1.6-4.4
			C110.7,61.7,108.8,60.9,107.1,61.7z"/>
		<path class="st6" d="M37.5,161.5c-1.7,0.8-2.4,2.8-1.6,4.4s2.8,2.4,4.4,1.6c1.7-0.8,2.4-2.8,1.6-4.4
			C41.1,161.5,39.1,160.7,37.5,161.5z"/>
		
			<ellipse transform="matrix(1 -1.355073e-03 1.355073e-03 1 -0.2405 3.078759e-02)" class="st6" cx="22.6" cy="177.5" rx="3.8" ry="3.7"/>
		
			<ellipse transform="matrix(0.9958 -9.180935e-02 9.180935e-02 0.9958 -17.3109 2.9126)" class="st6" cx="23" cy="189.6" rx="3.8" ry="3.8"/>
		
			<ellipse transform="matrix(0.9956 -9.379960e-02 9.379960e-02 0.9956 -3.139 14.0232)" class="st3" cx="147.6" cy="40.4" rx="3.8" ry="3.8"/>
		
			<ellipse transform="matrix(0.9956 -9.379960e-02 9.379960e-02 0.9956 -5.843 7.6918)" class="st2" cx="78.9" cy="66" rx="3.8" ry="3.8"/>
		<path class="st3" d="M112,43.8c-2,0.7-3,2.9-2.3,4.8c0.7,1.9,2.9,3,4.8,2.2c2-0.7,3-2.9,2.3-4.8S113.9,43,112,43.8z"/>
		<path class="st2" d="M52,85.8c-2,0.7-3,2.9-2.3,4.8c0.7,1.9,2.9,3,4.8,2.2c2-0.7,3-2.9,2.3-4.8S53.9,85.1,52,85.8z"/>
		<path class="st4" d="M23.7,149.1c-2,0.7-3,2.9-2.3,4.8s2.9,3,4.8,2.2c2-0.7,3-2.9,2.3-4.8C27.8,149.4,25.6,148.4,23.7,149.1z"/>
		<path class="st3" d="M134.7,38.1c-2,0.4-3.4,2.3-3,4.4c0.4,2,2.3,3.4,4.4,3c2-0.4,3.4-2.3,3-4.4C138.7,39,136.8,37.7,134.7,38.1z"
			/>
		<path class="st2" d="M68.5,69.6c-2,0.4-3.4,2.3-3,4.4s2.3,3.4,4.4,3c2-0.4,3.4-2.3,3-4.4S70.6,69.3,68.5,69.6z"/>
		<path class="st2" d="M100.2,48.2c-1.9,0.9-2.7,3.1-1.8,5c0.9,1.9,3.1,2.7,5,1.8s2.7-3.1,1.8-5C104.3,48.2,102.1,47.4,100.2,48.2z"
			/>
		<path class="st6" d="M21.6,160.9c-1.9,0.9-2.7,3.1-1.8,5s3.1,2.7,5,1.8s2.7-3.1,1.8-5C25.7,160.9,23.4,160,21.6,160.9z"/>
		
			<ellipse transform="matrix(1 -1.355073e-03 1.355073e-03 1 -0.2394 5.989047e-03)" class="st6" cx="4.3" cy="176.7" rx="4.3" ry="4.3"/>
		
			<ellipse transform="matrix(0.9958 -9.180935e-02 9.180935e-02 0.9958 -17.4607 1.2451)" class="st6" cx="4.8" cy="190.4" rx="4.3" ry="4.3"/>
		
			<ellipse transform="matrix(0.9956 -9.379960e-02 9.379960e-02 0.9956 -1.3156 13.8155)" class="st3" cx="146.3" cy="20.9" rx="4.3" ry="4.3"/>
		
			<ellipse transform="matrix(0.9956 -9.379960e-02 9.379960e-02 0.9956 -4.3897 6.618)" class="st2" cx="68.2" cy="50" rx="4.3" ry="4.3"/>
		<path class="st3" d="M105.8,24.7c-2.2,0.8-3.4,3.2-2.6,5.5c0.8,2.2,3.3,3.4,5.5,2.6c2.2-0.8,3.4-3.2,2.6-5.5
			C110.5,25,108,23.9,105.8,24.7z"/>
		<path class="st2" d="M37.6,72.4c-2.2,0.8-3.4,3.2-2.6,5.5c0.8,2.2,3.3,3.4,5.5,2.6c2.2-0.8,3.4-3.2,2.6-5.5
			C42.3,72.8,39.8,71.6,37.6,72.4z"/>
		<path class="st3" d="M131.7,18.2c-2.3,0.4-3.9,2.6-3.4,5c0.5,2.4,2.7,3.8,5,3.4c2.3-0.4,3.9-2.6,3.4-5
			C136.2,19.3,134,17.8,131.7,18.2z"/>
		<path class="st2" d="M56.5,54.1c-2.3,0.4-3.9,2.6-3.4,5c0.4,2.3,2.7,3.8,5,3.4s3.9-2.6,3.4-5S58.8,53.7,56.5,54.1z"/>
		<path class="st3" d="M92.4,29.8c-2.1,1-3.1,3.5-2.1,5.7s3.5,3.1,5.7,2.1c2.1-1,3.1-3.5,2.1-5.7C97.1,29.7,94.6,28.8,92.4,29.8z"/>
		<path class="st2" d="M28.7,83.4c-2.1,1-3.1,3.5-2.1,5.7c1,2.1,3.5,3.1,5.7,2.1c2.1-1,3.1-3.5,2.1-5.7
			C33.4,83.3,30.9,82.4,28.7,83.4z"/>
		<path class="st6" d="M3.1,157.8c-2.1,1-3.1,3.5-2.1,5.7c1,2.1,3.5,3.1,5.7,2.1c2.1-1,3.1-3.5,2.1-5.7
			C7.8,157.7,5.2,156.8,3.1,157.8z"/>
		
			<ellipse transform="matrix(0.9956 -9.379960e-02 9.379960e-02 0.9956 0.1307 13.5874)" class="st3" cx="144.6" cy="5.4" rx="4.7" ry="4.7"/>
		
			<ellipse transform="matrix(0.9956 -9.379960e-02 9.379960e-02 0.9956 -3.2594 5.6525)" class="st2" cx="58.5" cy="37.5" rx="4.7" ry="4.7"/>
		<path class="st3" d="M99.9,9.6c-2.5,0.9-3.7,3.6-2.8,6c0.9,2.4,3.6,3.7,6.1,2.8s3.7-3.6,2.8-6C105.1,10,102.4,8.7,99.9,9.6z"/>
		<path class="st2" d="M24.7,62.3c-2.5,0.9-3.7,3.6-2.8,6s3.6,3.7,6.1,2.8s3.7-3.6,2.8-6C29.9,62.7,27.1,61.4,24.7,62.3z"/>
		<path class="st3" d="M128.4,2.5c-2.6,0.5-4.3,2.9-3.8,5.5s2.9,4.2,5.5,3.8c2.6-0.4,4.3-2.9,3.8-5.5C133.5,3.7,131,2,128.4,2.5z"/>
		<path class="st2" d="M45.5,42.1c-2.6,0.5-4.3,2.9-3.8,5.5s2.9,4.2,5.5,3.8c2.6-0.5,4.3-2.9,3.8-5.5S48,41.6,45.5,42.1z"/>
		<path class="st3" d="M85.2,15.2c-2.4,1.1-3.4,3.9-2.3,6.2s3.9,3.4,6.3,2.3s3.4-3.9,2.3-6.2C90.3,15.2,87.5,14.1,85.2,15.2z"/>
		<path class="st2" d="M14.9,74.4c-2.4,1.1-3.4,3.9-2.3,6.2c1.1,2.4,3.9,3.4,6.3,2.3c2.4-1.1,3.4-3.9,2.3-6.2S17.3,73.3,14.9,74.4z"
			/>
		<ellipse transform="matrix(1 -1.979119e-03 1.979119e-03 1 -0.3839 0.4546)" class="st3" cx="229.5" cy="194.2" rx="2" ry="2"/>
		
			<ellipse transform="matrix(1 -1.979119e-03 1.979119e-03 1 -0.3847 0.4756)" class="st3" cx="240.1" cy="194.6" rx="2.3" ry="2.3"/>
		
			<ellipse transform="matrix(1 -1.979119e-03 1.979119e-03 1 -0.3846 0.5003)" class="st3" cx="252.6" cy="194.6" rx="2.6" ry="2.6"/>
		<ellipse transform="matrix(1 -1.979119e-03 1.979119e-03 1 -0.3846 0.527)" class="st2" cx="266.1" cy="194.6" rx="3" ry="2.9"/>
		
			<ellipse transform="matrix(1 -1.979119e-03 1.979119e-03 1 -0.3846 0.5553)" class="st2" cx="280.4" cy="194.6" rx="3.3" ry="3.3"/>
		
			<ellipse transform="matrix(1 -1.979119e-03 1.979119e-03 1 -0.3846 0.5846)" class="st2" cx="295.2" cy="194.6" rx="3.8" ry="3.7"/>
		
			<ellipse transform="matrix(1 -1.979119e-03 1.979119e-03 1 -0.3845 0.6183)" class="st4" cx="312.2" cy="194.6" rx="4.3" ry="4.3"/>
		
			<ellipse transform="matrix(1 -1.979119e-03 1.979119e-03 1 -0.3845 0.6521)" class="st4" cx="329.3" cy="194.6" rx="4.7" ry="4.7"/>
	</g>
	<g>
		<path class="st3" d="M277.1,135.9h-6.9c-0.6-4.7-2.8-7-6.6-7c-2.4,0-4.3,0.6-5.5,1.7c-1.2,1.2-1.8,2.9-1.8,5.2
			c0,1.7,0.7,3.4,2,4.9l14.7,16.5c2.7,3,4.1,6.3,4.1,9.8v3.4c0,3.8-1.4,7-4.1,9.8c-2.7,2.7-6,4.1-9.8,4.1h-6.9
			c-4.6,0-8.1-1.1-10.4-3.5c-2.3-2.3-3.5-5.8-3.5-10.4h7c0,0.5,0,0.9,0,1.2c0,1.9,0.7,3.3,2.2,4.3c1.4,1,3,1.5,4.7,1.5
			c2.4,0,4.2-0.6,5.3-1.8c1.1-1.2,1.6-2.9,1.6-5.2c0-1.8-0.7-3.4-2-4.9L246.5,149c-2.7-3-4.1-6.3-4.1-9.8v-3.4c0-3.8,1.4-7,4.1-9.8
			c2.7-2.7,6-4.1,9.8-4.1h6.9C272,122,276.6,126.6,277.1,135.9z"/>
		<path class="st3" d="M318.7,122h13.8v48.5c0,3.8-1.4,7-4.1,9.8c-2.7,2.7-6,4.1-9.7,4.1h-13.9c-3.8,0-7-1.4-9.8-4.1
			c-2.7-2.7-4.1-6-4.1-9.8V122h13.9v48.5c0,1.9,0.7,3.5,2,4.9c1.4,1.4,3,2.1,4.9,2.1s3.6-0.7,4.9-2.1c1.4-1.4,2-3,2-4.9V122H318.7z"
			/>
		<path class="st3" d="M353.4,184.4V122h13.8v62.4H353.4z"/>
		<path class="st3" d="M422.7,135.9h-6.9c-0.6-4.7-2.8-7-6.6-7c-2.4,0-4.3,0.6-5.5,1.7c-1.2,1.2-1.8,2.9-1.8,5.2
			c0,1.7,0.7,3.4,2,4.9l14.7,16.5c2.7,3,4.1,6.3,4.1,9.8v3.4c0,3.8-1.4,7-4.1,9.8c-2.7,2.7-6,4.1-9.8,4.1h-6.9
			c-4.6,0-8.1-1.1-10.4-3.5c-2.3-2.3-3.5-5.8-3.5-10.4h7c0,0.5,0,0.9,0,1.2c0,1.9,0.7,3.3,2.2,4.3c1.4,1,3,1.5,4.7,1.5
			c2.4,0,4.2-0.6,5.3-1.8c1.1-1.2,1.6-2.9,1.6-5.2c0-1.8-0.7-3.4-2-4.9L392.1,149c-2.7-3-4.1-6.3-4.1-9.8v-3.4c0-3.8,1.4-7,4.1-9.8
			c2.7-2.7,6-4.1,9.8-4.1h6.9C417.5,122,422.1,126.6,422.7,135.9z"/>
		<path class="st3" d="M471.1,135.9h-6.9c-0.6-4.7-2.8-7-6.6-7c-2.4,0-4.3,0.6-5.5,1.7s-1.8,2.9-1.8,5.2c0,1.7,0.7,3.4,2,4.9
			l14.7,16.5c2.7,3,4.1,6.3,4.1,9.8v3.4c0,3.8-1.4,7-4.1,9.8c-2.7,2.7-6,4.1-9.8,4.1h-6.9c-4.6,0-8.1-1.1-10.4-3.5
			c-2.3-2.3-3.5-5.8-3.5-10.4h7c0,0.5,0,0.9,0,1.2c0,1.9,0.7,3.3,2.2,4.3c1.4,1,3,1.5,4.7,1.5c2.4,0,4.2-0.6,5.3-1.8
			c1.1-1.2,1.6-2.9,1.6-5.2c0-1.8-0.7-3.4-2-4.9L440.5,149c-2.7-3-4.1-6.3-4.1-9.8v-3.4c0-3.8,1.4-7,4.1-9.8s6-4.1,9.8-4.1h6.9
			C466,122,470.6,126.6,471.1,135.9z"/>
		<path class="st3" d="M484.9,184.4V122h34.7v6.9h-20.8v20.8h13.9v7h-13.9v20.8h20.8v6.9H484.9z"/>
	</g>
	<g>
		<path class="st6" d="M272.9,224.9v5.1c-4.7,4.3-8.4,6.5-11,6.5c-1.3,0-2.1-0.5-2.5-1.4s-0.6-2.1-0.6-3.3v-1
			c-1.9,2.1-3.5,3.6-4.8,4.5c-1.3,0.8-2.5,1.3-3.7,1.3c-1.8,0-3.4-0.9-4.8-2.6s-2-3.8-2-6.1c0-4.4,1.4-8.1,4.1-11.3
			c2.5-3,5.3-4.4,8.3-4.4c1.2,0,2.3,0.3,3.3,0.9s1.9,1.6,2.8,2.9l1-3.8h5l-3.2,12.8c-0.3,1-0.5,2.1-0.7,3.2s-0.3,1.9-0.3,2.4
			c0,0.8,0.2,1.1,0.7,1.1c0.6,0,1.7-0.6,3.2-1.8C269.2,228.6,271,227,272.9,224.9z M259.7,225.6l1.4-6.1c-1.4-1.6-2.3-2.6-2.7-3
			c-0.6-0.5-1.3-0.8-2.1-0.8c-1.9,0-3.7,1.1-5.2,3.3c-1.6,2.2-2.3,4.7-2.3,7.4c0,1.7,0.3,3.1,0.9,4.2s1.3,1.6,2.2,1.6
			c1.2,0,2.7-0.9,4.4-2.7C257.4,228.3,258.6,227,259.7,225.6z"/>
		<path class="st6" d="M272.8,225.2l1-1.2c1.7-1.9,3.2-3.7,4.4-5.3c1.4-1.8,2.6-3.7,3.8-5.8c-0.3-0.3-0.5-0.6-0.5-0.9
			c0-1.3,0.3-2.6,0.9-3.7s1.5-1.7,2.8-1.7l2.8,0.1c0.8,0.2,1.2,0.5,1.2,1.2s-0.4,1.6-1.1,2.7c-0.8,1.1-1.5,2.1-2.1,3
			c1.3,1.5,2.1,2.8,2.6,3.9c0.5,1,0.7,2.1,0.7,3.3c0,1.8-0.3,3.7-0.9,5.7s-1.5,3.9-2.6,5.7c1.8,0,4.4-1.3,7.6-4
			c1.4-1.1,2.7-2.3,4.1-3.5v5.2l-0.9,0.7c-2.5,1.9-4.6,3.2-6.3,4.1c-1.6,0.8-3.1,1.3-4.3,1.3c-0.8,0-2-0.3-3.3-0.8
			c-0.7,0.4-1.4,0.7-2.3,0.9c-0.8,0.2-1.9,0.3-3.1,0.3c-0.9,0-1.6-0.1-1.9-0.4s-0.5-0.8-0.5-1.5c0-1.3,0.1-2.3,0.4-2.9s0.7-1,1.2-1
			s1.2,0.1,2.1,0.2c0.9,0.2,1.6,0.2,2,0.2c0.7,0,1.6-1.3,2.6-3.9s1.5-4.7,1.5-6.3c0-0.6-0.1-1.3-0.2-1.9s-0.4-1.2-0.8-1.9
			c-2.1,3.2-3.8,5.5-5,7c-1.4,1.7-3.3,3.8-5.8,6.1v-4.9H272.8z"/>
		<path class="st6" d="M297.3,225.2l1-1.2c1.7-1.9,3.2-3.7,4.4-5.3c1.4-1.8,2.6-3.7,3.8-5.8c-0.3-0.3-0.5-0.6-0.5-0.9
			c0-1.3,0.3-2.6,0.9-3.7s1.5-1.7,2.8-1.7l2.8,0.1c0.8,0.2,1.2,0.5,1.2,1.2s-0.4,1.6-1.1,2.7c-0.8,1.1-1.5,2.1-2.1,3
			c1.3,1.5,2.1,2.8,2.6,3.9c0.5,1,0.7,2.1,0.7,3.3c0,1.8-0.3,3.7-0.9,5.7s-1.5,3.9-2.6,5.7c1.8,0,4.4-1.3,7.6-4
			c1.4-1.1,2.7-2.3,4.1-3.5v5.2l-0.9,0.7c-2.5,1.9-4.6,3.2-6.3,4.1s-3.1,1.3-4.3,1.3c-0.8,0-2-0.3-3.3-0.8c-0.7,0.4-1.4,0.7-2.3,0.9
			c-0.8,0.2-1.9,0.3-3.1,0.3c-0.9,0-1.6-0.1-1.9-0.4s-0.5-0.8-0.5-1.5c0-1.3,0.1-2.3,0.4-2.9s0.7-1,1.2-1s1.2,0.1,2.1,0.2
			c0.9,0.2,1.6,0.2,2,0.2c0.7,0,1.6-1.3,2.6-3.9s1.5-4.7,1.5-6.3c0-0.6-0.1-1.3-0.2-1.9s-0.4-1.2-0.8-1.9c-2.1,3.2-3.8,5.5-5,7
			c-1.4,1.7-3.3,3.8-5.8,6.1v-4.9H297.3z"/>
		<path class="st6" d="M353.3,224.9v5.2c-1.4,1.1-3.1,1.6-5,1.6c-1.1,0-2.2-0.2-3.1-0.7s-1.9-1.2-2.9-2.2c-2.9,5.2-6.7,7.8-11.2,7.8
			c-2.4,0-4.3-0.8-5.7-2.3c-1.4-1.5-2.1-3.7-2.1-6.5c0-4.5,1.3-8.2,4-11.2c2.6-3,6.1-4.5,10.5-4.5l-0.2,3.5c-3,0.4-5.3,1.7-6.7,3.7
			c-1.4,2-2.1,4.6-2.1,7.9c0,3.7,1.2,5.5,3.6,5.5c1.5,0,2.9-0.8,4.3-2.5c1.4-1.6,2.3-3.6,2.7-5.8c-0.2-0.8-0.4-1.5-0.5-1.9
			s-0.1-0.8-0.1-1.3c0-1.1,0.1-2.3,0.3-3.6c0.2-1.3,0.6-2.4,1.2-3.3h4.1c0.2,0.8,0.3,1.5,0.4,2.1s0.1,1.1,0.1,1.5
			c0,2.2-0.4,4.5-1.1,6.9c1.9,2,3.6,3,4.9,3C350.1,227.7,351.7,226.7,353.3,224.9z"/>
		<path class="st6" d="M377.8,224.9v5.2c-2.4,2.3-4.8,3.9-7.2,5c-2.4,1.1-4.9,1.6-7.5,1.6c-3.5,0-6-1.1-7.5-3.3
			c-1-1.5-1.5-3.3-1.5-5.5c0-4,1.3-7.7,4-10.9s5.7-4.9,9-4.9c1.7,0,3,0.4,3.9,1.3s1.5,2,1.5,3.6c0,1.4-0.3,2.7-0.9,3.9
			c-0.6,1.2-1.5,2.2-2.5,2.9c-0.7-0.3-1.3-0.6-1.8-0.9s-0.9-0.7-1.3-1.2c1-1.4,1.6-2.3,1.9-2.8c0.2-0.5,0.4-1,0.4-1.5
			c0-1.1-0.6-1.6-1.7-1.6c-1.6,0-3.2,1.4-4.8,4.1c-1.6,2.7-2.4,5.3-2.4,7.9c0,1.5,0.4,2.8,1.3,3.7c0.9,0.9,2,1.4,3.5,1.4
			c2.1,0,4.3-0.7,6.7-2C373.1,229.5,375.4,227.5,377.8,224.9z"/>
		<path class="st6" d="M394.2,224.9v5.2c-1.6,1.6-3.5,3-5.6,4.3c-2.6,1.5-4.8,2.3-6.6,2.3c-1.5,0-2.5-1.1-3-3.2
			c-0.2-1.1-0.4-2.7-0.4-5c0-2.2,0.3-4.7,1-7.5s1.6-5.8,2.9-8.9h5.1l-0.6,1.8c-1.3,3.8-2.1,6.8-2.7,9s-0.8,4.2-0.8,5.9
			c0,1.9,0.4,2.9,1.2,2.9c1,0,3-1.2,5.8-3.6C391.8,227.1,393,226,394.2,224.9z M388.2,199c2,0,3,0.6,3,1.7c0,0.6-0.2,1.5-0.5,2.5
			s-0.7,1.7-1.1,2.1s-1.2,0.6-2.4,0.6c-1.5,0-2.3-0.5-2.3-1.5c0-1.4,0.3-2.7,0.9-3.8C386.5,199.5,387.3,199,388.2,199z"/>
		<path class="st6" d="M424.6,224.9v5.1c-4.7,4.3-8.4,6.5-11,6.5c-1.3,0-2.1-0.5-2.5-1.4s-0.6-2.1-0.6-3.3v-1
			c-1.9,2.1-3.5,3.6-4.8,4.5c-1.3,0.8-2.5,1.3-3.7,1.3c-1.8,0-3.4-0.9-4.8-2.6s-2-3.8-2-6.1c0-4.4,1.4-8.1,4.1-11.3
			c2.5-3,5.3-4.4,8.3-4.4c1.2,0,2.3,0.3,3.3,0.9s1.9,1.6,2.8,2.9l1-3.8h5l-3.2,12.8c-0.3,1-0.5,2.1-0.7,3.2s-0.3,1.9-0.3,2.4
			c0,0.8,0.2,1.1,0.7,1.1c0.6,0,1.7-0.6,3.2-1.8C420.9,228.6,422.6,227,424.6,224.9z M411.4,225.6l1.4-6.1c-1.4-1.6-2.3-2.6-2.7-3
			c-0.6-0.5-1.3-0.8-2.1-0.8c-1.9,0-3.7,1.1-5.2,3.3c-1.6,2.2-2.3,4.7-2.3,7.4c0,1.7,0.3,3.1,0.9,4.2s1.3,1.6,2.3,1.6
			c1.2,0,2.7-0.9,4.4-2.7C409,228.3,410.2,227,411.4,225.6z"/>
		<path class="st6" d="M429.3,212.8l4.5-13.5h5.1l-4.3,13.1h5.6l-0.7,3.5h-2.2h-3.9l-0.3,1c-0.6,2.1-1,3.9-1.3,5.5s-0.4,3-0.4,4.2
			c0,3.5,0.6,5.3,1.8,5.3c0.6,0,1.7-0.5,3.3-1.6c1.9-1.3,4-3.1,6.2-5.5v5.2c-2.7,2.5-5.2,4.3-7.5,5.4c-1.6,0.8-3,1.2-4.2,1.2
			c-1.5,0-2.8-0.8-3.7-2.4c-0.9-1.6-1.4-3.7-1.4-6.4c0-1.7,0.1-3.1,0.3-4.2c0.2-1.1,0.7-3.1,1.5-5.9l0.5-1.8l-1.9,0.3l0.2-2.3
			c0-0.3,0.3-0.5,0.9-0.6C427.9,213,428.6,212.9,429.3,212.8z"/>
		<path class="st6" d="M459,224.9v5.2c-1.6,1.6-3.5,3-5.6,4.3c-2.6,1.5-4.8,2.3-6.6,2.3c-1.5,0-2.5-1.1-3-3.2
			c-0.2-1.1-0.4-2.7-0.4-5c0-2.2,0.3-4.7,1-7.5s1.6-5.8,2.9-8.9h5.1l-0.6,1.8c-1.3,3.8-2.1,6.8-2.7,9s-0.8,4.2-0.8,5.9
			c0,1.9,0.4,2.9,1.2,2.9c1,0,3-1.2,5.8-3.6C456.5,227.1,457.8,226,459,224.9z M453,199c2,0,3,0.6,3,1.7c0,0.6-0.2,1.5-0.5,2.5
			s-0.7,1.7-1.1,2.1s-1.2,0.6-2.4,0.6c-1.5,0-2.3-0.5-2.3-1.5c0-1.4,0.3-2.7,0.9-3.8S452.1,199,453,199z"/>
		<path class="st6" d="M490.3,224.9v5.2c-1.4,1.1-3.1,1.6-5,1.6c-1.1,0-2.2-0.2-3.1-0.7s-1.9-1.2-2.9-2.2c-2.9,5.2-6.7,7.8-11.2,7.8
			c-2.4,0-4.3-0.8-5.7-2.3c-1.4-1.5-2.1-3.7-2.1-6.5c0-4.5,1.3-8.2,4-11.2c2.6-3,6.1-4.5,10.5-4.5l-0.2,3.5c-3,0.4-5.3,1.7-6.7,3.7
			c-1.4,2-2.1,4.6-2.1,7.9c0,3.7,1.2,5.5,3.6,5.5c1.5,0,2.9-0.8,4.3-2.5c1.4-1.6,2.3-3.6,2.7-5.8c-0.2-0.8-0.4-1.5-0.5-1.9
			s-0.1-0.8-0.1-1.3c0-1.1,0.1-2.3,0.3-3.6c0.2-1.3,0.6-2.4,1.2-3.3h4.1c0.2,0.8,0.3,1.5,0.4,2.1c0,0.6,0.1,1.1,0.1,1.5
			c0,2.2-0.4,4.5-1.1,6.9c1.9,2,3.6,3,4.9,3C487.1,227.7,488.7,226.7,490.3,224.9z"/>
		<path class="st6" d="M494.9,212.1h5.1c-0.6,1.5-1,2.8-1.4,4s-0.8,2.4-1.1,3.8c3.1-2.9,5.5-4.9,7.2-6.1c1.8-1.2,3.3-1.7,4.6-1.7
			c1.1,0,1.9,0.5,2.7,1.6c0.8,1.1,1.1,2.4,1.1,3.9c0,1.2-0.7,3.9-2.1,8c-0.6,1.9-1,3.6-1,4.9c0,1.2,0.3,1.8,1,1.8
			c0.5,0,1.7-0.6,3.4-1.8c2.2-1.5,4.2-3.4,6.1-5.6v5.2l-1.3,1.1c-2.3,2-4.3,3.4-5.7,4.2c-1.5,0.8-2.9,1.2-4.3,1.2
			c-1.3,0-2.3-0.5-3.1-1.5c-0.7-1-1.1-2.4-1.1-4.2c0-1.3,0.3-2.8,0.9-4.6c1.3-4,2-6.5,2-7.5c0-1.2-0.3-1.8-0.9-1.8
			c-1,0-4.4,2.7-10.1,8.1l-0.7,0.6c0,0.6-0.1,1.3-0.1,1.9s-0.1,1-0.1,1.2c0,0.5,0,1,0,1.3v4.8l0.2,1.4h-4.9
			c-0.2-1.3-0.2-2.4-0.2-3.5v-5.2C491.2,224,492.5,218.8,494.9,212.1z"/>
	</g>
</g>
</svg>
